<svg xmlns="http://www.w3.org/2000/svg" width="520" height="348" viewBox="0 0 520 348" fill="none"><rect width="519" height="347" transform="translate(0.538086 0.917969)" fill="#FDFDFD"></rect><path d="M57.3854 129.678C57.3854 129.678 97.4383 74.6088 179.475 62.3042C261.512 49.9996 353.236 123.848 390.057 151.705C426.879 179.562 498.079 204.449 505.04 248.865C512.002 293.281 489.041 315.024 489.041 315.024H25.062C25.062 315.024 8.94537 240.454 26.9996 191.867C45.0539 143.28 57.3854 129.678 57.3854 129.678Z" fill="#F7F7F7"></path><path d="M488.758 33.7617H405.974V315.04H488.758V33.7617Z" fill="white" stroke="#2B2B2B" stroke-width="2" stroke-linecap="round" stroke-linejoin="round"></path><path d="M488.758 206.566H405.974V315.039H488.758V206.566Z" fill="#F7FE92" stroke="#2B2B2B" stroke-width="2" stroke-linecap="round" stroke-linejoin="round"></path><path d="M452.276 278.002L407.96 233.559V247.716L452.276 292.16V278.002Z" fill="#2B2B2B"></path><path d="M487.221 313.047L476.163 301.957V313.047H487.221Z" fill="#2B2B2B"></path><path d="M452.276 313.048V305.08L407.96 260.637V274.794L446.103 313.048H452.276Z" fill="#2B2B2B"></path><path d="M452.276 250.921L410.008 208.531H407.96V220.635L452.276 265.078V250.921Z" fill="#2B2B2B"></path><path d="M476.163 274.879V289.037L488.757 301.667V287.51L476.163 274.879Z" fill="#2B2B2B"></path><path d="M433.218 313.05L407.96 287.719V301.869L419.101 313.05H433.218Z" fill="#2B2B2B"></path><path d="M452.276 223.841L437.01 208.531H422.894L452.276 237.999V223.841Z" fill="#2B2B2B"></path><path d="M476.163 247.797V261.954L488.757 274.585V260.428L476.163 247.797Z" fill="#2B2B2B"></path><path d="M488.757 33.7617H455.202V315.04H488.757V33.7617Z" fill="white" stroke="#2B2B2B" stroke-width="2" stroke-linecap="round" stroke-linejoin="round"></path><path d="M488.757 206.566H455.202V315.039H488.757V206.566Z" fill="#F7FE92" stroke="#2B2B2B" stroke-width="2" stroke-linecap="round" stroke-linejoin="round"></path><path d="M457.466 255.565V269.723L487.589 239.513V225.355L457.466 255.565Z" fill="#2B2B2B"></path><path d="M457.466 309.719V315.041H466.282L487.589 293.673V279.516L457.466 309.719Z" fill="#2B2B2B"></path><path d="M477.707 208.184L457.466 228.483V242.641L487.589 212.431V208.184H477.707Z" fill="#2B2B2B"></path><path d="M457.466 282.643V296.794L487.589 266.591V252.434L457.466 282.643Z" fill="#2B2B2B"></path><path d="M487.589 306.586L479.167 315.039H487.589V306.586Z" fill="#2B2B2B"></path><path d="M236.199 57.7255V33.7617" stroke="#2B2B2B" stroke-width="2" stroke-linecap="round" stroke-linejoin="round"></path><path d="M219.272 57.7255V33.7617" stroke="#141414" stroke-width="2" stroke-miterlimit="10"></path><path d="M202.347 57.7255V33.7617" stroke="#141414" stroke-width="2" stroke-miterlimit="10"></path><path d="M296.444 57.7255V33.7617" stroke="#2B2B2B" stroke-width="2" stroke-linecap="round" stroke-linejoin="round"></path><path d="M279.519 57.7255V33.7617" stroke="#141414" stroke-width="2" stroke-miterlimit="10"></path><path d="M262.592 57.7255V33.7617" stroke="#141414" stroke-width="2" stroke-miterlimit="10"></path><path d="M356.697 57.7255V33.7617" stroke="#2B2B2B" stroke-width="2" stroke-linecap="round" stroke-linejoin="round"></path><path d="M339.764 57.7255V33.7617" stroke="#141414" stroke-width="2" stroke-miterlimit="10"></path><path d="M322.837 57.7255V33.7617" stroke="#141414" stroke-width="2" stroke-miterlimit="10"></path><path d="M416.942 57.7255V33.7617" stroke="#2B2B2B" stroke-width="2" stroke-linecap="round" stroke-linejoin="round"></path><path d="M400.009 57.7255V33.7617" stroke="#141414" stroke-width="2" stroke-miterlimit="10"></path><path d="M383.083 57.7255V33.7617" stroke="#141414" stroke-width="2" stroke-miterlimit="10"></path><path d="M429.053 58.2812H378.966V67.2616H429.053V58.2812Z" fill="#2B2B2B" stroke="#2B2B2B" stroke-width="2" stroke-linecap="round" stroke-linejoin="round"></path><path d="M429.053 61.3633H378.966V67.2623H429.053V61.3633Z" fill="white" stroke="#2B2B2B" stroke-width="2" stroke-linecap="round" stroke-linejoin="round"></path><path d="M429.052 61.3633H394.445V67.2623H429.052V61.3633Z" fill="white" stroke="#2B2B2B" stroke-width="2" stroke-linecap="round" stroke-linejoin="round"></path><path d="M366.571 58.2812H316.484V67.2616H366.571V58.2812Z" fill="#2B2B2B" stroke="#2B2B2B" stroke-width="2" stroke-linecap="round" stroke-linejoin="round"></path><path d="M366.571 61.3633H316.484V67.2623H366.571V61.3633Z" fill="white" stroke="#2B2B2B" stroke-width="2" stroke-linecap="round" stroke-linejoin="round"></path><path d="M366.572 61.3633H331.965V67.2623H366.572V61.3633Z" fill="white" stroke="#2B2B2B" stroke-width="2" stroke-linecap="round" stroke-linejoin="round"></path><path d="M304.098 58.2812H254.011V67.2616H304.098V58.2812Z" fill="#2B2B2B" stroke="#2B2B2B" stroke-width="2" stroke-linecap="round" stroke-linejoin="round"></path><path d="M304.098 61.3633H254.011V67.2623H304.098V61.3633Z" fill="white" stroke="#2B2B2B" stroke-width="2" stroke-linecap="round" stroke-linejoin="round"></path><path d="M304.098 61.3633H269.491V67.2623H304.098V61.3633Z" fill="white" stroke="#2B2B2B" stroke-width="2" stroke-linecap="round" stroke-linejoin="round"></path><path d="M241.617 58.2812H191.53V67.2616H241.617V58.2812Z" fill="#2B2B2B" stroke="#2B2B2B" stroke-width="2" stroke-linecap="round" stroke-linejoin="round"></path><path d="M241.617 61.3633H191.53V67.2623H241.617V61.3633Z" fill="white" stroke="#2B2B2B" stroke-width="2" stroke-linecap="round" stroke-linejoin="round"></path><path d="M241.618 61.3633H207.011V67.2623H241.618V61.3633Z" fill="white" stroke="#2B2B2B" stroke-width="2" stroke-linecap="round" stroke-linejoin="round"></path><path d="M428.395 48.2383H190.396V52.2357H428.395V48.2383Z" fill="#2B2B2B" stroke="#2B2B2B" stroke-width="2" stroke-linecap="round" stroke-linejoin="round"></path><path d="M411.925 280.457H405.856L405.766 280.589C405.247 280.503 404.721 280.459 404.195 280.457C396.797 280.457 390.798 288.195 390.798 297.745C390.798 307.294 396.797 315.039 404.195 315.039C404.721 315.034 405.246 314.99 405.766 314.907L405.856 315.039H411.925C419.322 315.039 425.322 307.294 425.322 297.745C425.322 288.195 419.301 280.457 411.925 280.457Z" fill="#2B2B2B" stroke="#2B2B2B" stroke-width="2" stroke-linecap="round" stroke-linejoin="round"></path><path d="M287.607 280.457H281.538L281.448 280.589C280.929 280.503 280.404 280.459 279.878 280.457C272.48 280.457 266.48 288.195 266.48 297.745C266.48 307.294 272.48 315.039 279.878 315.039C280.404 315.034 280.929 314.99 281.448 314.907L281.538 315.039H287.607C295.005 315.039 301.004 307.294 301.004 297.745C301.004 288.195 295.005 280.457 287.607 280.457Z" fill="#2B2B2B" stroke="#2B2B2B" stroke-width="2" stroke-linecap="round" stroke-linejoin="round"></path><path d="M469.679 280.963H466.766L464.157 262.621C464.002 261.54 463.464 260.552 462.642 259.837C461.82 259.122 460.768 258.728 459.68 258.727H443.355L416.852 230.516C415.43 229.002 413.714 227.797 411.81 226.975C409.905 226.152 407.853 225.73 405.78 225.734H335.569C334.054 225.734 332.554 226.041 331.16 226.637C329.766 227.234 328.507 228.107 327.459 229.204L206.774 280.297V301.901H387.684L433.093 301.575L466.766 299.361V299.208H469.534C469.827 299.208 470.109 299.091 470.317 298.883C470.524 298.675 470.641 298.392 470.641 298.098V281.928C470.641 281.672 470.54 281.426 470.359 281.245C470.179 281.065 469.934 280.963 469.679 280.963Z" fill="#D0D0D0" stroke="#2B2B2B" stroke-width="2" stroke-linecap="round" stroke-linejoin="round"></path><path d="M418.277 298.555V301.65L433.093 301.546L466.766 299.332V299.179H469.534C469.74 299.178 469.941 299.119 470.115 299.009C470.289 298.898 470.428 298.741 470.516 298.555H418.277Z" fill="#2B2B2B" stroke="#2B2B2B" stroke-width="2" stroke-linecap="round" stroke-linejoin="round"></path><path d="M433.093 301.547C433.371 301.518 433.628 301.385 433.812 301.173C433.996 300.962 434.094 300.689 434.085 300.408C434.076 300.128 433.962 299.861 433.765 299.662C433.568 299.462 433.303 299.345 433.024 299.334H415.994L353.022 225.77H335.569C334.054 225.769 332.554 226.076 331.16 226.672C329.766 227.269 328.507 228.142 327.459 229.24L206.774 280.332V301.901H387.684L433.093 301.547Z" fill="#2B2B2B" stroke="#2B2B2B" stroke-width="2" stroke-linecap="round" stroke-linejoin="round"></path><path d="M234.932 280.457H228.863L224.884 286.314C222.697 289.723 221.534 293.691 221.534 297.745C221.534 301.798 222.697 305.766 224.884 309.175L228.863 315.039H234.932C242.336 315.039 248.336 307.294 248.336 297.745C248.336 288.195 242.336 280.457 234.932 280.457Z" fill="#2B2B2B" stroke="#2B2B2B" stroke-width="2" stroke-linecap="round" stroke-linejoin="round"></path><path d="M227.209 315.032C234.608 315.032 240.606 307.292 240.606 297.745C240.606 288.197 234.608 280.457 227.209 280.457C219.81 280.457 213.812 288.197 213.812 297.745C213.812 307.292 219.81 315.032 227.209 315.032Z" fill="#5A5A5A" stroke="#2B2B2B" stroke-width="2" stroke-linecap="round" stroke-linejoin="round"></path><path d="M227.209 311.533C233.114 311.533 237.9 305.359 237.9 297.743C237.9 290.127 233.114 283.953 227.209 283.953C221.304 283.953 216.518 290.127 216.518 297.743C216.518 305.359 221.304 311.533 227.209 311.533Z" fill="white" stroke="#2B2B2B" stroke-width="2" stroke-linecap="round" stroke-linejoin="round"></path><path d="M229.472 297.735C229.472 299.345 228.455 300.65 227.209 300.65C225.963 300.65 224.953 299.345 224.953 297.735C224.953 296.125 225.963 294.82 227.209 294.82C228.455 294.82 229.472 296.132 229.472 297.735Z" fill="white" stroke="#2B2B2B" stroke-width="2" stroke-linecap="round" stroke-linejoin="round"></path><path d="M370.169 280.457H364.093L360.114 286.314C357.927 289.723 356.765 293.691 356.765 297.745C356.765 301.798 357.927 305.766 360.114 309.175L364.093 315.039H370.169C377.567 315.039 383.566 307.294 383.566 297.745C383.566 288.195 377.567 280.457 370.169 280.457Z" fill="#2B2B2B" stroke="#2B2B2B" stroke-width="2" stroke-linecap="round" stroke-linejoin="round"></path><path d="M362.44 315.032C369.839 315.032 375.837 307.292 375.837 297.745C375.837 288.197 369.839 280.457 362.44 280.457C355.041 280.457 349.043 288.197 349.043 297.745C349.043 307.292 355.041 315.032 362.44 315.032Z" fill="#5A5A5A" stroke="#2B2B2B" stroke-width="2" stroke-linecap="round" stroke-linejoin="round"></path><path d="M362.439 311.533C368.344 311.533 373.131 305.359 373.131 297.743C373.131 290.127 368.344 283.953 362.439 283.953C356.535 283.953 351.748 290.127 351.748 297.743C351.748 305.359 356.535 311.533 362.439 311.533Z" fill="white" stroke="#2B2B2B" stroke-width="2" stroke-linecap="round" stroke-linejoin="round"></path><path d="M364.702 297.735C364.702 299.345 363.692 300.65 362.44 300.65C361.187 300.65 360.184 299.345 360.184 297.735C360.184 296.125 361.194 294.82 362.44 294.82C363.685 294.82 364.702 296.132 364.702 297.735Z" fill="white" stroke="#2B2B2B" stroke-width="2" stroke-linecap="round" stroke-linejoin="round"></path><path d="M416.852 230.515C416.631 230.286 416.395 230.071 416.16 229.855H361.423V256.977H441.695L416.852 230.515Z" fill="#2B2B2B" stroke="#2B2B2B" stroke-width="2" stroke-linecap="round" stroke-linejoin="round"></path><path d="M423.142 280.962H419.952L416.782 258.754H396.541L370.038 230.543C368.614 229.032 366.898 227.829 364.994 227.007C363.09 226.184 361.039 225.761 358.966 225.762H294.485C292.97 225.761 291.47 226.068 290.076 226.665C288.682 227.261 287.423 228.134 286.375 229.232L245.173 256.79L207.058 273.287L201.093 281.323C199.625 283.299 198.832 285.696 198.83 288.159V301.9H210.857V297.341C210.857 286.188 218.94 277.152 228.911 277.152C237.797 277.152 243.319 284.377 244.703 294.19L245.789 301.9H346.247V297.341C346.247 286.188 350.807 277.152 363.062 277.152C373.989 277.152 377.899 284.377 379.601 294.19L380.881 301.574L419.952 299.36V299.208H423.142V280.962Z" fill="#D0D0D0" stroke="#2B2B2B" stroke-width="2" stroke-linecap="round" stroke-linejoin="round"></path><path d="M286.721 233.264L251.346 256.791H317.459V230.176H294.049C292.684 230.174 291.332 230.447 290.074 230.977C288.815 231.508 287.675 232.285 286.721 233.264Z" fill="#2B2B2B" stroke="#2B2B2B" stroke-width="2" stroke-linecap="round" stroke-linejoin="round"></path><path d="M279.039 256.791L300.007 230.148H294.049C292.684 230.147 291.332 230.42 290.074 230.95C288.815 231.48 287.675 232.258 286.721 233.237L274.341 241.523L262.293 256.791H279.039Z" fill="white" stroke="#2B2B2B" stroke-width="2" stroke-linecap="round" stroke-linejoin="round"></path><path d="M317.459 256.817V237.684L302.401 256.817H317.459Z" fill="white" stroke="#2B2B2B" stroke-width="2" stroke-linecap="round" stroke-linejoin="round"></path><path d="M367.831 234.513L382.868 249.941C383.37 250.453 383.726 251.09 383.899 251.787C384.048 252.384 384.06 253.007 383.933 253.61C383.806 254.212 383.544 254.777 383.166 255.262C382.788 255.747 382.305 256.14 381.753 256.409C381.202 256.679 380.596 256.819 379.982 256.818H321.889V230.176H357.547C359.463 230.175 361.36 230.559 363.125 231.304C364.891 232.049 366.491 233.14 367.831 234.513Z" fill="#2B2B2B" stroke="#2B2B2B" stroke-width="2" stroke-linecap="round" stroke-linejoin="round"></path><path d="M353.742 230.176H347.901L326.934 256.818H332.774L353.742 230.176Z" fill="white" stroke="#2B2B2B" stroke-width="2" stroke-linecap="round" stroke-linejoin="round"></path><path d="M321.889 232.057V253.342L340.116 230.176H323.37L321.889 232.057Z" fill="white" stroke="#2B2B2B" stroke-width="2" stroke-linecap="round" stroke-linejoin="round"></path><path d="M416.782 258.727H459.686C460.775 258.727 461.826 259.121 462.649 259.836C463.471 260.551 464.009 261.539 464.163 262.62L466.772 280.962H419.952L416.782 258.727Z" fill="#D0D0D0" stroke="#2B2B2B" stroke-width="2" stroke-linecap="round" stroke-linejoin="round"></path><path d="M457.507 268.754H437.162V277.13H457.507V268.754Z" fill="white" stroke="#2B2B2B" stroke-width="2" stroke-linecap="round" stroke-linejoin="round"></path><path d="M469 284.391H381.829" stroke="#2B2B2B" stroke-width="2" stroke-linecap="round" stroke-linejoin="round"></path><path d="M342.877 284.391H246.28" stroke="#2B2B2B" stroke-width="2" stroke-linecap="round" stroke-linejoin="round"></path><path d="M214.207 284.391H203.148" stroke="#2B2B2B" stroke-width="2" stroke-linecap="round" stroke-linejoin="round"></path><path d="M433.646 268.887H414.457C413.567 268.886 412.695 269.135 411.938 269.604C411.181 270.074 410.57 270.746 410.173 271.545L406.956 277.992C406.814 278.286 406.75 278.612 406.768 278.938C406.785 279.264 406.885 279.581 407.058 279.858C407.231 280.135 407.471 280.364 407.755 280.523C408.04 280.682 408.36 280.766 408.686 280.768H433.674L433.646 268.887Z" fill="#D0D0D0" stroke="#2B2B2B" stroke-width="2" stroke-linecap="round" stroke-linejoin="round"></path><path d="M433.646 268.887H418.159L419.855 280.796H433.646V268.887Z" fill="#2B2B2B" stroke="#2B2B2B" stroke-width="2" stroke-linecap="round" stroke-linejoin="round"></path><path d="M464.974 268.887H460.282L460.227 280.796H466.669L464.974 268.887Z" fill="#2B2B2B" stroke="#2B2B2B" stroke-width="2" stroke-linecap="round" stroke-linejoin="round"></path><path d="M255.657 251.266H246.087C245.323 251.266 244.703 251.887 244.703 252.654V260.35C244.703 261.117 245.323 261.738 246.087 261.738H255.657C256.422 261.738 257.041 261.117 257.041 260.35V252.654C257.041 251.887 256.422 251.266 255.657 251.266Z" fill="#2B2B2B" stroke="#2B2B2B" stroke-width="2" stroke-linecap="round" stroke-linejoin="round"></path><path d="M315.875 261.738H304.014V266.499H315.875V261.738Z" fill="#2B2B2B" stroke="#2B2B2B" stroke-width="2" stroke-linecap="round" stroke-linejoin="round"></path><path d="M318.726 259.836V296" stroke="#2B2B2B" stroke-width="2" stroke-linecap="round" stroke-linejoin="round"></path><path d="M238.53 276.016C238.53 276.016 247.222 280.936 248.336 297.745H340.552" stroke="#2B2B2B" stroke-width="2" stroke-linecap="round" stroke-linejoin="round"></path><path d="M384.203 283.164C384.203 283.164 379.664 271.262 364.454 271.262C353.852 271.262 348.78 276.848 346.247 281.255" stroke="#2B2B2B" stroke-width="2" stroke-linecap="round" stroke-linejoin="round"></path><path d="M274.57 280.457H268.501L268.411 280.589C267.894 280.503 267.371 280.459 266.847 280.457C259.443 280.457 253.45 288.195 253.45 297.745C253.45 307.294 259.443 315.039 266.847 315.039C267.371 315.034 267.894 314.99 268.411 314.907L268.501 315.039H274.57C281.968 315.039 287.967 307.294 287.967 297.745C287.967 288.195 281.968 280.457 274.57 280.457Z" fill="#2B2B2B" stroke="#2B2B2B" stroke-width="2" stroke-linecap="round" stroke-linejoin="round"></path><path d="M150.253 280.457H144.184L144.094 280.589C143.577 280.503 143.054 280.459 142.53 280.457C135.126 280.457 129.133 288.195 129.133 297.745C129.133 307.294 135.126 315.039 142.53 315.039C143.054 315.034 143.577 314.99 144.094 314.907L144.184 315.039H150.253C157.65 315.039 163.65 307.294 163.65 297.745C163.65 288.195 157.65 280.457 150.253 280.457Z" fill="#2B2B2B" stroke="#2B2B2B" stroke-width="2" stroke-linecap="round" stroke-linejoin="round"></path><path d="M332.324 280.963H329.411L326.802 262.62C326.648 261.541 326.112 260.552 325.291 259.837C324.47 259.122 323.419 258.728 322.331 258.727H306.007L279.517 230.516C278.094 229.005 276.377 227.802 274.473 226.979C272.57 226.157 270.518 225.733 268.445 225.734H198.187C196.671 225.733 195.171 226.04 193.777 226.636C192.383 227.233 191.124 228.106 190.076 229.204L69.3916 280.297V301.901H250.329L295.745 301.575L329.411 299.361V299.208H332.179C332.471 299.206 332.751 299.089 332.957 298.881C333.163 298.672 333.279 298.391 333.279 298.098V281.928C333.279 281.673 333.178 281.429 333 281.248C332.821 281.067 332.578 280.965 332.324 280.963Z" fill="white" stroke="#2B2B2B" stroke-width="2" stroke-linecap="round" stroke-linejoin="round"></path><path d="M280.901 298.555V301.65L295.724 301.546L329.39 299.332V299.179H332.158C332.362 299.177 332.562 299.118 332.735 299.007C332.907 298.897 333.045 298.74 333.134 298.555H280.901Z" fill="#2B2B2B" stroke="#2B2B2B" stroke-width="2" stroke-linecap="round" stroke-linejoin="round"></path><path d="M295.745 301.547C296.023 301.518 296.28 301.383 296.464 301.171C296.647 300.959 296.744 300.686 296.735 300.405C296.725 300.124 296.61 299.858 296.412 299.659C296.214 299.46 295.948 299.344 295.669 299.334H278.645L215.673 225.77H198.187C196.671 225.768 195.171 226.075 193.777 226.671C192.383 227.268 191.124 228.141 190.076 229.24L69.3916 280.332V301.901H250.329L295.745 301.547Z" fill="#2B2B2B" stroke="#2B2B2B" stroke-width="2" stroke-linecap="round" stroke-linejoin="round"></path><path d="M97.584 280.457H91.5152L87.5362 286.314C85.3493 289.723 84.1865 293.691 84.1865 297.745C84.1865 301.798 85.3493 305.766 87.5362 309.175L91.5152 315.039H97.584C104.981 315.039 110.981 307.294 110.981 297.745C110.981 288.195 104.981 280.457 97.584 280.457Z" fill="#2B2B2B" stroke="#2B2B2B" stroke-width="2" stroke-linecap="round" stroke-linejoin="round"></path><path d="M89.861 315.032C97.26 315.032 103.258 307.292 103.258 297.745C103.258 288.197 97.26 280.457 89.861 280.457C82.462 280.457 76.4639 288.197 76.4639 297.745C76.4639 307.292 82.462 315.032 89.861 315.032Z" fill="#5A5A5A" stroke="#2B2B2B" stroke-width="2" stroke-linecap="round" stroke-linejoin="round"></path><path d="M89.8613 311.533C95.766 311.533 100.553 305.359 100.553 297.743C100.553 290.127 95.766 283.953 89.8613 283.953C83.9566 283.953 79.1699 290.127 79.1699 297.743C79.1699 305.359 83.9566 311.533 89.8613 311.533Z" fill="white" stroke="#2B2B2B" stroke-width="2" stroke-linecap="round" stroke-linejoin="round"></path><path d="M92.1174 297.735C92.1174 299.345 91.1071 300.65 89.8615 300.65C88.6159 300.65 87.5986 299.345 87.5986 297.735C87.5986 296.125 88.6089 294.82 89.8615 294.82C91.114 294.82 92.1174 296.132 92.1174 297.735Z" fill="white" stroke="#2B2B2B" stroke-width="2" stroke-linecap="round" stroke-linejoin="round"></path><path d="M232.814 280.457H226.746L222.773 286.314C220.587 289.723 219.424 293.691 219.424 297.745C219.424 301.798 220.587 305.766 222.773 309.175L226.752 315.039H232.821C240.219 315.039 246.218 307.294 246.218 297.745C246.218 288.195 240.212 280.457 232.814 280.457Z" fill="#2B2B2B" stroke="#2B2B2B" stroke-width="2" stroke-linecap="round" stroke-linejoin="round"></path><path d="M238.489 297.737C238.489 307.286 232.49 315.031 225.092 315.031C217.695 315.031 211.702 307.293 211.702 297.737C211.702 288.18 217.695 280.449 225.099 280.449C232.504 280.449 238.489 288.194 238.489 297.737Z" fill="#5A5A5A" stroke="#2B2B2B" stroke-width="2" stroke-linecap="round" stroke-linejoin="round"></path><path d="M235.776 297.735C235.776 305.369 230.995 311.532 225.092 311.532C219.189 311.532 214.4 305.369 214.4 297.735C214.4 290.101 219.189 283.945 225.092 283.945C230.995 283.945 235.776 290.101 235.776 297.735Z" fill="white" stroke="#2B2B2B" stroke-width="2" stroke-linecap="round" stroke-linejoin="round"></path><path d="M227.348 297.735C227.348 299.345 226.338 300.65 225.092 300.65C223.846 300.65 222.829 299.345 222.829 297.735C222.829 296.125 223.846 294.82 225.092 294.82C226.338 294.82 227.348 296.132 227.348 297.735Z" fill="white" stroke="#2B2B2B" stroke-width="2" stroke-linecap="round" stroke-linejoin="round"></path><path d="M279.518 230.515C279.297 230.286 279.061 230.071 278.826 229.855H224.089V256.977H304.361L279.518 230.515Z" fill="#2B2B2B" stroke="#2B2B2B" stroke-width="2" stroke-linecap="round" stroke-linejoin="round"></path><path d="M285.787 280.962H282.597L279.435 258.754H259.187L232.683 230.543C231.262 229.03 229.546 227.825 227.641 227.002C225.737 226.18 223.685 225.758 221.611 225.762H157.117C155.6 225.761 154.099 226.068 152.704 226.664C151.309 227.261 150.049 228.134 149 229.232L107.826 256.79L69.7103 273.287L63.7453 281.323C62.2774 283.299 61.4839 285.696 61.4824 288.159V301.9H73.5025V297.341C73.5025 286.188 81.585 277.152 91.5567 277.152C100.442 277.152 105.964 284.377 107.348 294.19L108.442 301.9H208.892V297.341C208.892 286.188 213.453 277.152 225.715 277.152C236.641 277.152 240.544 284.377 242.247 294.19L243.534 301.547L282.597 299.333V299.18H285.787V280.962Z" fill="white" stroke="#2B2B2B" stroke-width="2" stroke-linecap="round" stroke-linejoin="round"></path><path d="M149.366 233.264L113.991 256.791H180.105V230.176H156.695C155.33 230.176 153.978 230.449 152.72 230.979C151.462 231.509 150.321 232.286 149.366 233.264Z" fill="#2B2B2B" stroke="#2B2B2B" stroke-width="2" stroke-linecap="round" stroke-linejoin="round"></path><path d="M141.685 256.791L162.652 230.148H156.694C155.329 230.148 153.978 230.421 152.72 230.952C151.461 231.482 150.321 232.259 149.366 233.237L136.965 241.523L124.938 256.791H141.685Z" fill="white" stroke="#2B2B2B" stroke-width="2" stroke-linecap="round" stroke-linejoin="round"></path><path d="M180.105 256.817V237.684L165.047 256.817H180.105Z" fill="white" stroke="#2B2B2B" stroke-width="2" stroke-linecap="round" stroke-linejoin="round"></path><path d="M230.483 234.513L245.52 249.941C246.02 250.454 246.376 251.091 246.551 251.787C246.699 252.384 246.71 253.008 246.582 253.61C246.454 254.212 246.191 254.777 245.813 255.262C245.435 255.747 244.951 256.139 244.399 256.409C243.847 256.679 243.242 256.819 242.628 256.818H184.534V230.176H220.193C222.11 230.175 224.007 230.558 225.775 231.303C227.542 232.048 229.142 233.139 230.483 234.513Z" fill="#2B2B2B" stroke="#2B2B2B" stroke-width="2" stroke-linecap="round" stroke-linejoin="round"></path><path d="M216.394 230.176H210.554L189.586 256.818H195.426L216.394 230.176Z" fill="white" stroke="#2B2B2B" stroke-width="2" stroke-linecap="round" stroke-linejoin="round"></path><path d="M184.534 232.057V253.342L202.761 230.176H186.015L184.534 232.057Z" fill="white" stroke="#2B2B2B" stroke-width="2" stroke-linecap="round" stroke-linejoin="round"></path><path d="M279.435 258.727H322.339C323.426 258.727 324.477 259.122 325.298 259.837C326.119 260.552 326.656 261.54 326.809 262.62L329.418 280.962H282.597L279.435 258.727Z" fill="white" stroke="#2B2B2B" stroke-width="2" stroke-linecap="round" stroke-linejoin="round"></path><path d="M320.152 268.754H299.808V277.13H320.152V268.754Z" fill="white" stroke="#2B2B2B" stroke-width="2" stroke-linecap="round" stroke-linejoin="round"></path><path d="M331.653 284.391H244.481" stroke="#2B2B2B" stroke-width="2" stroke-linecap="round" stroke-linejoin="round"></path><path d="M205.529 284.391H108.926" stroke="#2B2B2B" stroke-width="2" stroke-linecap="round" stroke-linejoin="round"></path><path d="M76.8589 284.391H65.8008" stroke="#2B2B2B" stroke-width="2" stroke-linecap="round" stroke-linejoin="round"></path><path d="M296.299 268.887H277.075C276.185 268.886 275.313 269.135 274.556 269.604C273.799 270.074 273.188 270.746 272.792 271.545L269.581 277.992C269.439 278.286 269.375 278.612 269.393 278.938C269.41 279.264 269.51 279.581 269.683 279.858C269.856 280.135 270.096 280.364 270.38 280.523C270.665 280.682 270.985 280.766 271.311 280.768H296.299V268.887Z" fill="#D0D0D0" stroke="#2B2B2B" stroke-width="2" stroke-linecap="round" stroke-linejoin="round"></path><path d="M296.299 268.887H280.805L282.5 280.796H296.299V268.887Z" fill="#2B2B2B" stroke="#2B2B2B" stroke-width="2" stroke-linecap="round" stroke-linejoin="round"></path><path d="M327.625 268.887H322.933L322.871 280.796H329.314L327.625 268.887Z" fill="#2B2B2B" stroke="#2B2B2B" stroke-width="2" stroke-linecap="round" stroke-linejoin="round"></path><path d="M118.303 251.266H108.733C107.968 251.266 107.349 251.887 107.349 252.654V260.35C107.349 261.117 107.968 261.738 108.733 261.738H118.303C119.067 261.738 119.687 261.117 119.687 260.35V252.654C119.687 251.887 119.067 251.266 118.303 251.266Z" fill="#2B2B2B" stroke="#2B2B2B" stroke-width="2" stroke-linecap="round" stroke-linejoin="round"></path><path d="M178.52 261.738H166.659V266.499H178.52V261.738Z" fill="#2B2B2B" stroke="#2B2B2B" stroke-width="2" stroke-linecap="round" stroke-linejoin="round"></path><path d="M181.371 259.836V296" stroke="#2B2B2B" stroke-width="2" stroke-linecap="round" stroke-linejoin="round"></path><path d="M101.183 276.016C101.183 276.016 109.867 280.936 110.981 297.745H203.197" stroke="#2B2B2B" stroke-width="2" stroke-linecap="round" stroke-linejoin="round"></path><path d="M246.856 283.164C246.856 283.164 242.309 271.262 227.099 271.262C216.498 271.262 211.432 276.848 208.893 281.255" stroke="#2B2B2B" stroke-width="2" stroke-linecap="round" stroke-linejoin="round"></path><path d="M59.0325 191.997C59.0325 191.997 56.5551 188.527 53.7318 188.631C50.9084 188.735 45.9744 191.553 45.8153 193.76C45.6561 195.967 49.559 201.762 49.559 201.762L48.4449 206.037L57.8907 209.805L58.5827 206.335C58.5827 206.335 61.8974 206.203 61.8766 205.717C61.8558 205.232 62.0565 200.776 62.0565 200.776C62.2109 200.717 62.3518 200.628 62.4708 200.513C62.5898 200.399 62.6845 200.261 62.7491 200.109C62.8138 199.956 62.847 199.792 62.8469 199.627C62.8468 199.461 62.8133 199.298 62.7485 199.145C62.2308 198.021 61.5702 196.969 60.7832 196.015C60.8048 195.258 60.659 194.504 60.3563 193.81C60.0537 193.115 59.6016 192.496 59.0325 191.997Z" fill="white" stroke="#2B2B2B" stroke-width="2" stroke-linecap="round" stroke-linejoin="round"></path><path d="M60.5407 197.108C60.6791 197.482 60.6722 197.836 60.5407 197.899C60.4092 197.961 60.1463 197.697 60.0079 197.323C59.8695 196.948 59.8833 196.629 60.0079 196.532C60.1324 196.434 60.4023 196.705 60.5407 197.108Z" fill="#2B2B2B"></path><path d="M60.7898 196.001C60.7898 196.001 59.8764 195.085 59.2812 195.855" stroke="#2B2B2B" stroke-width="2" stroke-linecap="round" stroke-linejoin="round"></path><path d="M61.3293 201.964C60.7301 201.987 60.146 201.773 59.7031 201.367" stroke="#2B2B2B" stroke-width="2" stroke-linecap="round" stroke-linejoin="round"></path><path d="M59.0319 191.998L56.0978 192.484C56.0978 192.484 57.2534 193.678 56.7898 194.434L56.3261 195.191L55.7172 198.425L54.7415 198.584C54.7415 198.584 52.4302 196.086 51.3853 197.731C50.3403 199.376 52.3817 201.145 52.3817 201.145C52.3817 201.145 50.9977 203.054 50.0082 203.338C49.0186 203.623 49.8421 202.235 48.209 201.437C46.5759 200.639 43.9739 196.912 44.2715 195.191C44.5691 193.47 46.2714 189.68 49.5445 188.57C52.8177 187.46 54.9145 187.494 56.5337 187.918C58.153 188.341 59.9937 188.279 60.2844 189.5C60.575 190.721 59.0319 191.998 59.0319 191.998Z" fill="#2B2B2B" stroke="#2B2B2B" stroke-width="2" stroke-linecap="round" stroke-linejoin="round"></path><path d="M60.7764 230.043L67.2674 235.706L64.6585 241.237L60.292 239.683L60.7764 230.043Z" fill="#C2E0F9" stroke="#2B2B2B" stroke-width="2" stroke-linecap="round" stroke-linejoin="round"></path><path d="M66.1043 234.152L63.0664 241.301L64.831 242.466L70.1179 236.214L66.1043 234.152Z" fill="#C2E0F9" stroke="#2B2B2B" stroke-width="2" stroke-linecap="round" stroke-linejoin="round"></path><path d="M69.1496 236.992L79.1213 240.296C79.1213 240.296 82.5813 241.267 82.9896 241.621C83.3979 241.975 84.5466 243.78 84.2006 244.397C84.0679 244.599 83.8899 244.767 83.6808 244.888C83.4717 245.008 83.2373 245.078 82.9965 245.091C82.3009 245.118 81.6077 245.188 80.9205 245.299C80.2285 245.445 78.5677 244.772 77.4605 244.571C76.3533 244.369 74.305 242.6 74.305 242.6L66.001 240.83L69.1496 236.992Z" fill="white" stroke="#2B2B2B" stroke-width="2" stroke-linecap="round" stroke-linejoin="round"></path><path d="M81.0309 242.056C81.0309 242.056 80.3389 243.444 81.1347 244.138C81.9305 244.832 83.619 245.054 84.1449 243.742C84.6708 242.431 82.235 241.043 81.0309 242.056Z" fill="#2B2B2B" stroke="#2B2B2B" stroke-width="2" stroke-linecap="round" stroke-linejoin="round"></path><path d="M76.7061 240.619C76.7061 240.619 78.962 240.022 79.4325 239.925C79.9031 239.828 81.7784 240.813 82.3459 240.813C82.9133 240.813 84.3527 240.084 84.0689 240.875C83.7852 241.667 83.6399 241.639 82.8718 242.104C82.1037 242.569 80.1038 242.062 80.1038 242.062C79.8297 242.358 79.4977 242.594 79.1286 242.755C78.7595 242.916 78.3612 242.999 77.9586 242.999C76.7337 242.895 76.9206 242.104 76.9206 242.104" fill="white"></path><path d="M76.7061 240.619C76.7061 240.619 78.962 240.022 79.4325 239.925C79.9031 239.828 81.7784 240.813 82.3459 240.813C82.9133 240.813 84.3527 240.084 84.0689 240.875C83.7852 241.667 83.6399 241.639 82.8718 242.104C82.1037 242.569 80.1038 242.062 80.1038 242.062C79.8297 242.358 79.4977 242.594 79.1286 242.755C78.7595 242.916 78.3612 242.999 77.9586 242.999C76.7337 242.895 76.9206 242.104 76.9206 242.104" stroke="#2B2B2B" stroke-width="2" stroke-linecap="round" stroke-linejoin="round"></path><path d="M34.8884 307.884C34.8884 307.884 37.172 310.39 38.1477 310.903C39.1234 311.417 42.6872 311.951 42.8464 312.631C43.0056 313.311 42.4866 313.874 40.7704 314.352C38.7718 314.93 36.6562 314.966 34.6393 314.457C31.7536 313.887 28.7434 313.596 27.5048 313.235C26.2661 312.874 25.8855 313.575 25.5533 312.222C25.2212 310.869 26.6398 308.488 26.6398 308.488C26.6398 308.488 34.0511 307.239 34.8884 307.884Z" fill="white" stroke="#2B2B2B" stroke-width="2" stroke-linecap="round" stroke-linejoin="round"></path><path d="M42.2861 253.32C42.2861 253.32 39.0683 272.058 38.1826 273.849C37.2968 275.639 31.2626 288.062 30.5706 291.511C29.8786 294.96 26.5293 306.571 26.5293 306.571L26.6054 308.479C27.3552 308.748 28.1417 308.9 28.9375 308.931C29.8924 308.896 34.8887 307.876 34.8887 307.876C35.2853 307.115 35.4422 306.251 35.3385 305.398C35.1516 304.01 33.7123 302.185 34.0998 301.623C34.4873 301.061 42.1616 284.904 42.556 284.481C42.9505 284.058 46.2444 281.191 47.0955 278.693C47.9467 276.195 54.2716 263.647 54.2716 263.647C54.2716 263.647 48.4726 258.275 45.9676 256.187C43.4625 254.098 42.2861 253.32 42.2861 253.32Z" fill="#2B2B2B" stroke="#2B2B2B" stroke-width="2" stroke-linecap="round" stroke-linejoin="round"></path><path d="M80.5812 305.253C82.2022 305.655 83.8558 305.91 85.5221 306.017C87.0168 305.954 90.9059 304.434 91.2242 305.517C91.5425 306.6 89.7295 309.126 87.8749 310.43C85.5492 311.834 83.0809 312.986 80.512 313.866C79.4325 314.185 77.744 315.753 75.7788 314.74C73.8135 313.727 74.3948 309.882 74.3948 309.882L80.5812 305.253Z" fill="white" stroke="#2B2B2B" stroke-width="2" stroke-linecap="round" stroke-linejoin="round"></path><path d="M61.1637 251.758C61.1637 251.758 68.0837 271.03 69.6061 275.749C71.1285 280.469 71.9796 284.133 72.1319 284.535C72.2841 284.938 80.5812 305.251 80.5812 305.251C80.5812 305.251 78.0346 309.728 76.4292 310.477C75.6153 310.878 74.7586 311.186 73.8757 311.393C73.8757 311.393 64.2777 292.655 63.0459 289.137C61.8141 285.618 60.6377 279.795 59.4613 277.248C58.2849 274.701 40.376 255.401 40.376 255.401C43.6601 254.358 47.0401 253.647 50.4653 253.278C54.9426 252.958 61.1637 251.758 61.1637 251.758Z" fill="#2B2B2B" stroke="#2B2B2B" stroke-width="2" stroke-linecap="round" stroke-linejoin="round"></path><path d="M56.9215 210.342C56.9215 210.342 59.7726 214.048 60.6376 217.227C61.5026 220.405 61.7725 230.378 61.7725 230.378C61.7725 230.378 61.897 249.116 62.0631 250.226C62.3348 251.352 62.7077 252.451 63.1772 253.509C60.6921 253.637 58.2315 254.066 55.8489 254.786C52.4443 255.91 49.7732 256.632 47.5449 256.715C45.3167 256.799 40.3758 255.404 40.3758 255.404C40.3758 255.404 40.7633 249.595 41.1716 247.478C41.4498 245.839 41.63 244.184 41.7114 242.523L41.3861 234.278C41.3861 234.278 39.5385 224.854 40.7287 220.613C41.919 216.373 42.9708 212.133 44.7562 210.585C45.8883 209.582 46.9155 208.466 47.8217 207.254L56.9215 210.342Z" fill="#C2E0F9" stroke="#2B2B2B" stroke-width="2" stroke-linecap="round" stroke-linejoin="round"></path><path d="M48.6665 203.637L47.8223 207.246L56.6453 212.568L57.6002 208.71L48.6665 203.637Z" fill="white" stroke="#2B2B2B" stroke-width="2" stroke-linecap="round" stroke-linejoin="round"></path><path d="M34.8195 239.211L36.6256 250.613C35.9938 251.862 35.4683 253.162 35.0548 254.499C34.8561 255.467 34.6066 256.424 34.3074 257.366C34.2036 257.74 33.8784 261.946 34.6188 262.043C35.3592 262.14 37.9888 263.389 38.4594 262.876C39.3225 261.565 39.9719 260.124 40.3832 258.608C40.4731 257.74 41.0752 251.3 40.8952 249.704C40.7153 248.108 41.4419 238.6 41.4419 238.6C41.4419 238.6 36.8124 236.788 34.8195 239.211Z" fill="white" stroke="#2B2B2B" stroke-width="2" stroke-linecap="round" stroke-linejoin="round"></path><path d="M48.3896 209.07C48.3896 209.07 44.6736 208.48 43.0266 210.27C41.3797 212.061 35.2416 228.335 35.1932 230.07C35.1448 231.805 34.9648 236.739 34.9648 236.739L41.615 236.968L43.8155 230.348L51.8496 218.924" fill="#C2E0F9"></path><path d="M48.3896 209.07C48.3896 209.07 44.6736 208.48 43.0266 210.27C41.3797 212.061 35.2416 228.335 35.1932 230.07C35.1448 231.805 34.9648 236.739 34.9648 236.739L41.615 236.968L43.8155 230.348L51.8496 218.924" stroke="#2B2B2B" stroke-width="2" stroke-linecap="round" stroke-linejoin="round"></path><path d="M34.0508 235.422L34.8189 239.211C35.6617 238.835 36.5838 238.673 37.5039 238.739C38.8697 238.913 40.1858 239.364 41.3721 240.065C41.8863 238.746 42.244 237.372 42.4378 235.97C42.5001 234.471 39.3307 232.007 34.0508 235.422Z" fill="#C2E0F9" stroke="#2B2B2B" stroke-width="2" stroke-linecap="round" stroke-linejoin="round"></path><path d="M46.6729 226.358L53.4683 222.402" stroke="#2B2B2B" stroke-width="2" stroke-linecap="round" stroke-linejoin="round"></path><path d="M207.937 33.7617H125.153V315.04H207.937V33.7617Z" fill="white" stroke="#2B2B2B" stroke-width="2" stroke-linecap="round" stroke-linejoin="round"></path><path d="M207.937 206.566H125.153V315.039H207.937V206.566Z" fill="#F7FE92" stroke="#2B2B2B" stroke-width="2" stroke-linecap="round" stroke-linejoin="round"></path><path d="M171.455 278.002L127.14 233.559V247.716L171.455 292.16V278.002Z" fill="#2B2B2B"></path><path d="M206.394 313.047L195.343 301.957V313.047H206.394Z" fill="#2B2B2B"></path><path d="M171.455 313.048V305.08L127.14 260.637V274.794L165.283 313.048H171.455Z" fill="#2B2B2B"></path><path d="M171.455 250.921L129.188 208.531H127.14V220.635L171.455 265.078V250.921Z" fill="#2B2B2B"></path><path d="M195.343 274.879V289.037L207.937 301.667V287.51L195.343 274.879Z" fill="#2B2B2B"></path><path d="M152.398 313.05L127.14 287.719V301.869L138.281 313.05H152.398Z" fill="#2B2B2B"></path><path d="M171.455 223.841L156.189 208.531H142.072L171.455 237.999V223.841Z" fill="#2B2B2B"></path><path d="M195.343 247.797V261.954L207.937 274.585V260.428L195.343 247.797Z" fill="#2B2B2B"></path><path d="M207.93 33.7617H174.375V315.04H207.93V33.7617Z" fill="white" stroke="#2B2B2B" stroke-width="2" stroke-linecap="round" stroke-linejoin="round"></path><path d="M207.93 206.566H174.375V315.039H207.93V206.566Z" fill="#F7FE92" stroke="#2B2B2B" stroke-width="2" stroke-linecap="round" stroke-linejoin="round"></path><path d="M176.646 255.565V269.723L206.768 239.513V225.355L176.646 255.565Z" fill="#2B2B2B"></path><path d="M176.646 309.719V315.041H185.462L206.768 293.673V279.516L176.646 309.719Z" fill="#2B2B2B"></path><path d="M196.887 208.184L176.646 228.483V242.641L206.768 212.431V208.184H196.887Z" fill="#2B2B2B"></path><path d="M176.646 282.643V296.794L206.768 266.591V252.434L176.646 282.643Z" fill="#2B2B2B"></path><path d="M206.767 306.586L198.346 315.039H206.767V306.586Z" fill="#2B2B2B"></path><path d="M81.3076 57.7255V33.7617" stroke="#2B2B2B" stroke-width="2" stroke-linecap="round" stroke-linejoin="round"></path><path d="M64.3818 57.7255V33.7617" stroke="#141414" stroke-width="2" stroke-miterlimit="10"></path><path d="M47.4482 57.7255V33.7617" stroke="#141414" stroke-width="2" stroke-miterlimit="10"></path><path d="M141.554 57.7255V33.7617" stroke="#2B2B2B" stroke-width="2" stroke-linecap="round" stroke-linejoin="round"></path><path d="M124.627 57.7255V33.7617" stroke="#141414" stroke-width="2" stroke-miterlimit="10"></path><path d="M107.694 57.7255V33.7617" stroke="#141414" stroke-width="2" stroke-miterlimit="10"></path><path d="M153.663 58.2812H103.576V67.2616H153.663V58.2812Z" fill="#2B2B2B" stroke="#2B2B2B" stroke-width="2" stroke-linecap="round" stroke-linejoin="round"></path><path d="M153.663 61.3633H103.576V67.2623H153.663V61.3633Z" fill="white" stroke="#2B2B2B" stroke-width="2" stroke-linecap="round" stroke-linejoin="round"></path><path d="M153.664 61.3633H119.057V67.2623H153.664V61.3633Z" fill="white" stroke="#2B2B2B" stroke-width="2" stroke-linecap="round" stroke-linejoin="round"></path><path d="M91.1895 58.2812H41.1025V67.2616H91.1895V58.2812Z" fill="#2B2B2B" stroke="#2B2B2B" stroke-width="2" stroke-linecap="round" stroke-linejoin="round"></path><path d="M91.1895 61.3633H41.1025V67.2623H91.1895V61.3633Z" fill="white" stroke="#2B2B2B" stroke-width="2" stroke-linecap="round" stroke-linejoin="round"></path><path d="M91.1899 61.3633H56.583V67.2623H91.1899V61.3633Z" fill="white" stroke="#2B2B2B" stroke-width="2" stroke-linecap="round" stroke-linejoin="round"></path><path d="M153.006 48.2383H18.8066V52.2357H153.006V48.2383Z" fill="#2B2B2B" stroke="#2B2B2B" stroke-width="2" stroke-linecap="round" stroke-linejoin="round"></path><path d="M192.326 177.548C190.167 177.548 188.513 177.152 187.364 176.361C186.216 175.561 185.386 174.382 185.018 173.03C184.571 171.396 184.359 169.707 184.389 168.012H190.077C190.063 168.961 190.133 169.908 190.284 170.844C190.365 171.482 190.629 172.083 191.046 172.572C191.268 172.775 191.532 172.927 191.818 173.019C192.105 173.111 192.408 173.141 192.706 173.106C193.024 173.118 193.338 173.046 193.62 172.899C193.901 172.752 194.14 172.534 194.312 172.267C194.69 171.559 194.898 170.772 194.921 169.969C194.997 168.97 195.038 167.797 195.038 166.444C195.048 165.471 194.983 164.499 194.845 163.536C194.767 162.821 194.512 162.136 194.104 161.544C193.896 161.301 193.633 161.112 193.337 160.991C193.041 160.871 192.72 160.822 192.402 160.85C192.086 160.837 191.771 160.892 191.479 161.012C191.186 161.132 190.923 161.313 190.706 161.544C190.205 162.141 189.869 162.859 189.731 163.626H184.714L185.136 146.02H199.336V151.107H189.987L189.648 157.963C190.066 157.501 190.598 157.156 191.191 156.964C191.944 156.681 192.734 156.512 193.537 156.464C194.936 156.264 196.359 156.593 197.53 157.387C198.646 158.242 199.466 159.427 199.875 160.774C200.422 162.539 200.679 164.381 200.637 166.229C200.643 167.747 200.541 169.264 200.332 170.768C200.17 172.031 199.768 173.251 199.149 174.362C198.557 175.377 197.681 176.195 196.63 176.715C195.281 177.33 193.806 177.615 192.326 177.548Z" fill="#2B2B2B"></path><path d="M203.08 104.832H178.527C177.236 104.832 176.188 105.882 176.188 107.178V131.801C176.188 133.096 177.236 134.147 178.527 134.147H203.08C204.371 134.147 205.419 133.096 205.419 131.801V107.178C205.419 105.882 204.371 104.832 203.08 104.832Z" fill="#2B2B2B" stroke="#2B2B2B" stroke-linecap="round" stroke-linejoin="round"></path><path d="M184.714 131.691V106.846H192.575C193.842 106.794 195.1 107.086 196.215 107.692C197.149 108.261 197.877 109.115 198.291 110.128C198.784 111.356 199.02 112.671 198.983 113.994C199.058 115.438 198.744 116.876 198.076 118.158C197.519 119.125 196.654 119.875 195.62 120.289C194.479 120.728 193.264 120.943 192.042 120.92H189.745V131.684L184.714 131.691ZM189.759 117.367H191.53C192.119 117.4 192.705 117.278 193.232 117.013C193.434 116.89 193.61 116.727 193.749 116.536C193.888 116.344 193.988 116.126 194.042 115.896C194.198 115.253 194.27 114.593 194.257 113.932C194.267 113.294 194.212 112.656 194.09 112.03C193.994 111.552 193.726 111.127 193.336 110.836C192.784 110.507 192.143 110.357 191.502 110.406H189.759V117.367Z" fill="#F7FE92"></path><path d="M12.6338 315.039H507.441" stroke="#2B2B2B" stroke-linecap="round" stroke-linejoin="round"></path></svg>